# xmcd
#
# Track frame offsets:
#	150
#	17204
#	36994
#	50626
#	66895
#	81638
#	98228
#	117771
#	133398
#	150922
#
# Disc length: 2245 seconds
#
# Revision: 0
# Processed by: cddbd v1.5.1PL0 Copyright (c) Steve Scherf et al.
# Submitted via: dBpowerAMP V4.0
#
DISCID=8a08c30a
DTITLE=Wes "The Blues Man" Mackey - Second Chance
DYEAR=2002
DGENRE=Blues
TTITLE0=Lonely Man
TTITLE1=Rock Me Baby
TTITLE2=Bluesman
TTITLE3=Outskirts Of Town
TTITLE4=Sweet Music
TTITLE5=Wham Bam
TTITLE6=Since I Met You Baby
TTITLE7=Poor Boy
TTITLE8=Solitary Midnight
TTITLE9=Second Chance
EXTD=
EXTT0=
EXTT1=
EXTT2=
EXTT3=
EXTT4=
EXTT5=
EXTT6=
EXTT7=
EXTT8=
EXTT9=
PLAYORDER=
